999
FreeCAD v1.1 20260414 (Git shallow)
  0
SECTION
  2
HEADER
  9
$ACADVER
  1
AC1014
  9
$ACADMAINTVER
 70
     9
  9
$DWGCODEPAGE
  3
ANSI_1252
  9
$TEXTSTYLE
  7
STANDARD
  9
$DIMSTYLE
  2
STANDARD
  9
$DIMTXSTY
  7
STANDARD
  9
$CMLSTYLE
  2
STANDARD
  9
$LUNITS
 70
2
  9
$INSUNITS
 70
4
  9
$PEXTMAX
 10
50
 20
50
 30
50
  9
$PEXTMIN
 10
0
 20
0
 30
0
  9
$HANDSEED
  5
FFFF
  0
ENDSEC
  0
SECTION
  2
CLASSES
  0
CLASS
  1
ACDBDICTIONARYWDFLT
  2
AcDbDictionaryWithDefault
  3
ObjectDBX Classes
 90
        0
280
     0
281
     0
  0
CLASS
  1
XRECORD
  2
AcDbXrecord
  3
ObjectDBX Classes
 90
        0
280
     0
281
     0
  0
CLASS
  1
LWPOLYLINE
  2
AcDbPolyline
  3
ObjectDBX Classes
 90
        0
280
     0
281
     1
  0
ENDSEC
  0
SECTION
  2
TABLES
  0
TABLE
  2
VPORT
  5
20
330
0
100
AcDbSymbolTable
 70
     1
  0
VPORT
  5
21
330
20
100
AcDbSymbolTableRecord
100
AcDbViewportTableRecord
  2
*ACTIVE
 70
     0
  0
ENDTAB
  0
TABLE
  2
LTYPE
  5
22
330
0
100
AcDbSymbolTable
 70
     1
  0
LTYPE
  5
23
330
21
100
AcDbSymbolTableRecord
100
AcDbLinetypeTableRecord
  2
BYBLOCK
 70
     0
  3

 72
    65
 73
     0
 40
0.0
  0
LTYPE
  5
24
330
21
100
AcDbSymbolTableRecord
100
AcDbLinetypeTableRecord
  2
BYLAYER
 70
     0
  3

 72
    65
 73
     0
 40
0.0
  0
LTYPE
  5
25
330
21
100
AcDbSymbolTableRecord
100
AcDbLinetypeTableRecord
  2
CONTINUOUS
 70
     0
  3
Solid line
 72
    65
 73
     0
 40
0.0
  0
ENDTAB
  0
TABLE
  2
LAYER
  5
B1C
330
0
100
AcDbSymbolTable
 70
7
  0
LAYER
  5
B1D
330
B1C
100
AcDbSymbolTableRecord
100
AcDbLayerTableRecord
  2
0
 70
   0
 62
   7
  6
CONTINUOUS
  0
LAYER
  5
B1E
330
B1C
100
AcDbSymbolTableRecord
100
AcDbLayerTableRecord
  2
none
 70
    0
 62
    7
  6
CONTINUOUS
  0
LAYER
  5
B1F
330
B1C
100
AcDbSymbolTableRecord
100
AcDbLayerTableRecord
  2
Body_Unfold_Sketch
 70
    0
 62
    7
  6
CONTINUOUS
  0
LAYER
  5
B20
330
B1C
100
AcDbSymbolTableRecord
100
AcDbLayerTableRecord
  2
Body_Unfold_Sketch_Bends
 70
    0
 62
    7
  6
CONTINUOUS
  0
LAYER
  5
B21
330
B1C
100
AcDbSymbolTableRecord
100
AcDbLayerTableRecord
  2
Body_Unfold_Sketch_Internal
 70
    0
 62
    7
  6
CONTINUOUS
  0
LAYER
  5
B22
330
B1C
100
AcDbSymbolTableRecord
100
AcDbLayerTableRecord
  2
Body_Unfold_Sketch_Holes
 70
    0
 62
    7
  6
CONTINUOUS
  0
LAYER
  5
B23
330
B1C
100
AcDbSymbolTableRecord
100
AcDbLayerTableRecord
  2
Body_Unfold_Sketch_Bend_Labels
 70
    0
 62
    7
  6
CONTINUOUS
  0
ENDTAB
  0
TABLE
  2
STYLE
  5
70
330
0
100
AcDbSymbolTable
 70
     2
  0
STYLE
  5
71
330
70
100
AcDbSymbolTableRecord
100
AcDbTextStyleTableRecord
  2
STANDARD
 70
     0
 40
0.0
 41
1.0
 50
0.0
 71
     0
 42
2.5
  3
arial.ttf
  4

  0
STYLE
  5
72
330
70
100
AcDbSymbolTableRecord
100
AcDbTextStyleTableRecord
  2
ANNOTATIVE
 70
     0
 40
0.0
 41
1.0
 50
0.0
 71
     0
 42
2.5
  3
arial.ttf
  4

  0
ENDTAB
  0
TABLE
  2
VIEW
  5
73
330
0
100
AcDbSymbolTable
 70
     0
  0
ENDTAB
  0
TABLE
  2
UCS
  5
74
330
0
100
AcDbSymbolTable
 70
     0
  0
ENDTAB
  0
TABLE
  2
APPID
  5
75
330
0
100
AcDbSymbolTable
 70
     2
  0
APPID
  5
76
330
75
100
AcDbSymbolTableRecord
100
AcDbRegAppTableRecord
  2
ACAD
 70
     0
  0
APPID
  5
77
330
75
100
AcDbSymbolTableRecord
100
AcDbRegAppTableRecord
  2
ACADANNOTATIVE
 70
     0
  0
ENDTAB
  0
TABLE
  2
DIMSTYLE
  5
78
330
0
100
AcDbSymbolTable
 70
     2
  0
DIMSTYLE
105
79
330
78
100
AcDbSymbolTableRecord
100
AcDbDimStyleTableRecord
  2
STANDARD
 70
     0
  3

  4

  5

  6

  7

 40
0.0
 41
2.5
 42
0.625
 43
3.75
 44
1.25
 45
0.0
 46
0.0
 47
0.0
 48
0.0
140
2.5
141
2.5
142
0.0
143
0.03937007874016
144
1.0
145
0.0
146
1.0
147
0.625
 71
     0
 72
     0
 73
     0
 74
     0
 75
     0
 76
     0
 77
     1
 78
     8
170
     0
171
     3
172
     1
173
     0
174
     0
175
     0
176
     0
177
     0
178
     0
270
     2
271
     2
272
     2
273
     2
274
     3
340
71
275
     0
280
     0
281
     0
282
     0
283
     0
284
     8
285
     0
286
     0
287
     3
288
     0
  0
ENDTAB
  0
TABLE
  2
BLOCK_RECORD
  5
A01
330
0
100
AcDbSymbolTable
  70
5
  0
BLOCK_RECORD
  5
A02
330
A01
100
AcDbSymbolTableRecord
100
AcDbBlockTableRecord
  2
*MODEL_SPACE
  0
BLOCK_RECORD
  5
A03
330
A01
100
AcDbSymbolTableRecord
100
AcDbBlockTableRecord
  2
*PAPER_SPACE
  0
ENDTAB
  0
ENDSEC
  0
SECTION
  2
BLOCKS
  0
BLOCK
  5
A04
330
A02
100
AcDbEntity
  8
0
100
AcDbBlockBegin
  2
*MODEL_SPACE
 70
   0
 10
0
 20
0
 30
0
  3
*MODEL_SPACE
  1
 
  0
ENDBLK
  5
A05
330
A02
100
AcDbEntity
  8
0
100
AcDbBlockEnd
  0
BLOCK
  5
A06
330
A03
100
AcDbEntity
 67
1
  8
0
100
AcDbBlockBegin
  2
*PAPER_SPACE
 70
   0
 10
0
 20
0
 30
0
  3
*PAPER_SPACE
  1
 
  0
ENDBLK
  5
A07
330
A03
100
AcDbEntity
 67
    1
  8
0
100
AcDbBlockEnd
  0
ENDSEC
  0
SECTION
  2
ENTITIES
  0
LINE
  5
A08
330
A02
100
AcDbEntity
  8
Body_Unfold_Sketch
100
AcDbLine
 10
0.000000000
 20
110.000000000
 30
0.000000000
 11
0.000000000
 21
10.000000000
 31
0.000000000
  0
ARC
  5
A09
330
A02
100
AcDbEntity
  8
Body_Unfold_Sketch
100
AcDbCircle
 10
10.000000000
 20
10.000000000
 30
0.000000000
 40
10.000000000
100
AcDbArc
 50
180.000000000
 51
-90.000000000
  0
LINE
  5
A0A
330
A02
100
AcDbEntity
  8
Body_Unfold_Sketch
100
AcDbLine
 10
10.000000000
 20
0.000000000
 30
0.000000000
 11
15.000000000
 21
0.000000000
 31
0.000000000
  0
LINE
  5
A0B
330
A02
100
AcDbEntity
  8
Body_Unfold_Sketch
100
AcDbLine
 10
15.000000000
 20
0.000000000
 30
0.000000000
 11
21.283185307
 21
0.000000000
 31
0.000000000
  0
LINE
  5
A0C
330
A02
100
AcDbEntity
  8
Body_Unfold_Sketch
100
AcDbLine
 10
21.283185307
 20
0.000000000
 30
0.000000000
 11
52.283185307
 21
0.000000000
 31
0.000000000
  0
LINE
  5
A0D
330
A02
100
AcDbEntity
  8
Body_Unfold_Sketch
100
AcDbLine
 10
52.283185307
 20
0.000000000
 30
0.000000000
 11
56.995574288
 21
0.000000000
 31
0.000000000
  0
LINE
  5
A0E
330
A02
100
AcDbEntity
  8
Body_Unfold_Sketch
100
AcDbLine
 10
56.995574288
 20
0.000000000
 30
0.000000000
 11
272.995574288
 21
0.000000000
 31
0.000000000
  0
ARC
  5
A0F
330
A02
100
AcDbEntity
  8
Body_Unfold_Sketch
100
AcDbCircle
 10
272.995574288
 20
10.000000000
 30
0.000000000
 40
10.000000000
100
AcDbArc
 50
-90.000000000
 51
0.000000000
  0
LINE
  5
A10
330
A02
100
AcDbEntity
  8
Body_Unfold_Sketch
100
AcDbLine
 10
282.995574288
 20
10.000000000
 30
0.000000000
 11
282.995574288
 21
50.000000000
 31
0.000000000
  0
ARC
  5
A11
330
A02
100
AcDbEntity
  8
Body_Unfold_Sketch
100
AcDbCircle
 10
272.995574288
 20
50.000000000
 30
0.000000000
 40
10.000000000
100
AcDbArc
 50
-0.000000000
 51
90.000000000
  0
LINE
  5
A12
330
A02
100
AcDbEntity
  8
Body_Unfold_Sketch
100
AcDbLine
 10
272.995574288
 20
60.000000000
 30
0.000000000
 11
202.995574288
 21
60.000000000
 31
0.000000000
  0
LINE
  5
A13
330
A02
100
AcDbEntity
  8
Body_Unfold_Sketch
100
AcDbLine
 10
202.995574288
 20
60.000000000
 30
0.000000000
 11
202.995574288
 21
88.000000000
 31
0.000000000
  0
LINE
  5
A14
330
A02
100
AcDbEntity
  8
Body_Unfold_Sketch
100
AcDbLine
 10
202.995574288
 20
88.000000000
 30
0.000000000
 11
196.995574288
 21
88.000000000
 31
0.000000000
  0
LINE
  5
A15
330
A02
100
AcDbEntity
  8
Body_Unfold_Sketch
100
AcDbLine
 10
196.995574288
 20
88.000000000
 30
0.000000000
 11
196.995574288
 21
90.000000000
 31
0.000000000
  0
LINE
  5
A16
330
A02
100
AcDbEntity
  8
Body_Unfold_Sketch
100
AcDbLine
 10
196.995574288
 20
90.000000000
 30
0.000000000
 11
198.995574288
 21
90.000000000
 31
0.000000000
  0
LINE
  5
A17
330
A02
100
AcDbEntity
  8
Body_Unfold_Sketch
100
AcDbLine
 10
198.995574288
 20
90.000000000
 30
0.000000000
 11
203.707963268
 21
90.000000000
 31
0.000000000
  0
LINE
  5
A18
330
A02
100
AcDbEntity
  8
Body_Unfold_Sketch
100
AcDbLine
 10
203.707963268
 20
90.000000000
 30
0.000000000
 11
234.707963268
 21
90.000000000
 31
0.000000000
  0
ARC
  5
A19
330
A02
100
AcDbEntity
  8
Body_Unfold_Sketch
100
AcDbCircle
 10
234.707963268
 20
105.000000000
 30
0.000000000
 40
15.000000000
100
AcDbArc
 50
-90.000000000
 51
0.000000000
  0
ARC
  5
A1A
330
A02
100
AcDbEntity
  8
Body_Unfold_Sketch
100
AcDbCircle
 10
234.707963268
 20
105.000000000
 30
0.000000000
 40
15.000000000
100
AcDbArc
 50
0.000000000
 51
90.000000000
  0
LINE
  5
A1B
330
A02
100
AcDbEntity
  8
Body_Unfold_Sketch
100
AcDbLine
 10
234.707963268
 20
120.000000000
 30
0.000000000
 11
203.707963268
 21
120.000000000
 31
0.000000000
  0
LINE
  5
A1C
330
A02
100
AcDbEntity
  8
Body_Unfold_Sketch
100
AcDbLine
 10
203.707963268
 20
120.000000000
 30
0.000000000
 11
198.995574288
 21
120.000000000
 31
0.000000000
  0
LINE
  5
A1D
330
A02
100
AcDbEntity
  8
Body_Unfold_Sketch
100
AcDbLine
 10
198.995574288
 20
120.000000000
 30
0.000000000
 11
56.995574288
 21
120.000000000
 31
0.000000000
  0
LINE
  5
A1E
330
A02
100
AcDbEntity
  8
Body_Unfold_Sketch
100
AcDbLine
 10
56.995574288
 20
120.000000000
 30
0.000000000
 11
52.283185307
 21
120.000000000
 31
0.000000000
  0
LINE
  5
A1F
330
A02
100
AcDbEntity
  8
Body_Unfold_Sketch
100
AcDbLine
 10
52.283185307
 20
120.000000000
 30
0.000000000
 11
21.283185307
 21
120.000000000
 31
0.000000000
  0
LINE
  5
A20
330
A02
100
AcDbEntity
  8
Body_Unfold_Sketch
100
AcDbLine
 10
21.283185307
 20
120.000000000
 30
0.000000000
 11
15.000000000
 21
120.000000000
 31
0.000000000
  0
LINE
  5
A21
330
A02
100
AcDbEntity
  8
Body_Unfold_Sketch
100
AcDbLine
 10
15.000000000
 20
120.000000000
 30
0.000000000
 11
10.000000000
 21
120.000000000
 31
0.000000000
  0
ARC
  5
A22
330
A02
100
AcDbEntity
  8
Body_Unfold_Sketch
100
AcDbCircle
 10
10.000000000
 20
110.000000000
 30
0.000000000
 40
10.000000000
100
AcDbArc
 50
90.000000000
 51
-180.000000000
  0
LINE
  5
A23
330
A02
100
AcDbEntity
  8
Body_Unfold_Sketch_Bends
100
AcDbLine
 10
54.639379797
 20
11.000000000
 30
0.000000000
 11
54.639379797
 21
-0.000000000
 31
0.000000000
  0
LINE
  5
A24
330
A02
100
AcDbEntity
  8
Body_Unfold_Sketch_Bends
100
AcDbLine
 10
201.351768778
 20
90.000000000
 30
0.000000000
 11
201.351768778
 21
120.000000000
 31
0.000000000
  0
LINE
  5
A25
330
A02
100
AcDbEntity
  8
Body_Unfold_Sketch_Bends
100
AcDbLine
 10
54.639379797
 20
120.000000000
 30
0.000000000
 11
54.639379797
 21
109.000000000
 31
0.000000000
  0
LINE
  5
A26
330
A02
100
AcDbEntity
  8
Body_Unfold_Sketch_Bends
100
AcDbLine
 10
54.639379797
 20
26.000000000
 30
0.000000000
 11
54.639379797
 21
19.000000000
 31
0.000000000
  0
LINE
  5
A27
330
A02
100
AcDbEntity
  8
Body_Unfold_Sketch_Bends
100
AcDbLine
 10
54.639379797
 20
101.000000000
 30
0.000000000
 11
54.639379797
 21
94.000000000
 31
0.000000000
  0
LINE
  5
A28
330
A02
100
AcDbEntity
  8
Body_Unfold_Sketch_Bends
100
AcDbLine
 10
54.639379797
 20
41.000000000
 30
0.000000000
 11
54.639379797
 21
34.000000000
 31
0.000000000
  0
LINE
  5
A29
330
A02
100
AcDbEntity
  8
Body_Unfold_Sketch_Bends
100
AcDbLine
 10
54.639379797
 20
86.000000000
 30
0.000000000
 11
54.639379797
 21
79.000000000
 31
0.000000000
  0
LINE
  5
A2A
330
A02
100
AcDbEntity
  8
Body_Unfold_Sketch_Bends
100
AcDbLine
 10
54.639379797
 20
56.000000000
 30
0.000000000
 11
54.639379797
 21
49.000000000
 31
0.000000000
  0
LINE
  5
A2B
330
A02
100
AcDbEntity
  8
Body_Unfold_Sketch_Bends
100
AcDbLine
 10
54.639379797
 20
71.000000000
 30
0.000000000
 11
54.639379797
 21
64.000000000
 31
0.000000000
  0
LINE
  5
A2C
330
A02
100
AcDbEntity
  8
Body_Unfold_Sketch_Bends
100
AcDbLine
 10
18.141592654
 20
120.000000000
 30
0.000000000
 11
18.141592654
 21
0.000000000
 31
0.000000000
  0
LINE
  5
A2D
330
A02
100
AcDbEntity
  8
Body_Unfold_Sketch_Internal
100
AcDbLine
 10
52.283185307
 20
11.000000000
 30
0.000000000
 11
56.995574288
 21
11.000000000
 31
0.000000000
  0
LINE
  5
A2E
330
A02
100
AcDbEntity
  8
Body_Unfold_Sketch_Internal
100
AcDbLine
 10
56.995574288
 20
11.000000000
 30
0.000000000
 11
68.995574288
 21
11.000000000
 31
0.000000000
  0
ARC
  5
A2F
330
A02
100
AcDbEntity
  8
Body_Unfold_Sketch_Internal
100
AcDbCircle
 10
68.995574288
 20
15.000000000
 30
0.000000000
 40
4.000000000
100
AcDbArc
 50
-90.000000000
 51
90.000000000
  0
LINE
  5
A30
330
A02
100
AcDbEntity
  8
Body_Unfold_Sketch_Internal
100
AcDbLine
 10
68.995574288
 20
19.000000000
 30
0.000000000
 11
56.995574288
 21
19.000000000
 31
0.000000000
  0
LINE
  5
A31
330
A02
100
AcDbEntity
  8
Body_Unfold_Sketch_Internal
100
AcDbLine
 10
56.995574288
 20
19.000000000
 30
0.000000000
 11
52.283185307
 21
19.000000000
 31
0.000000000
  0
LINE
  5
A32
330
A02
100
AcDbEntity
  8
Body_Unfold_Sketch_Internal
100
AcDbLine
 10
52.283185307
 20
19.000000000
 30
0.000000000
 11
38.283185307
 21
19.000000000
 31
0.000000000
  0
ARC
  5
A33
330
A02
100
AcDbEntity
  8
Body_Unfold_Sketch_Internal
100
AcDbCircle
 10
38.283185307
 20
15.000000000
 30
0.000000000
 40
4.000000000
100
AcDbArc
 50
90.000000000
 51
-90.000000000
  0
LINE
  5
A34
330
A02
100
AcDbEntity
  8
Body_Unfold_Sketch_Internal
100
AcDbLine
 10
38.283185307
 20
11.000000000
 30
0.000000000
 11
52.283185307
 21
11.000000000
 31
0.000000000
  0
ARC
  5
A35
330
A02
100
AcDbEntity
  8
Body_Unfold_Sketch_Internal
100
AcDbCircle
 10
38.283185307
 20
105.000000000
 30
0.000000000
 40
4.000000000
100
AcDbArc
 50
90.000000000
 51
-90.000000000
  0
LINE
  5
A36
330
A02
100
AcDbEntity
  8
Body_Unfold_Sketch_Internal
100
AcDbLine
 10
38.283185307
 20
109.000000000
 30
0.000000000
 11
52.283185307
 21
109.000000000
 31
0.000000000
  0
LINE
  5
A37
330
A02
100
AcDbEntity
  8
Body_Unfold_Sketch_Internal
100
AcDbLine
 10
52.283185307
 20
109.000000000
 30
0.000000000
 11
56.995574288
 21
109.000000000
 31
0.000000000
  0
LINE
  5
A38
330
A02
100
AcDbEntity
  8
Body_Unfold_Sketch_Internal
100
AcDbLine
 10
56.995574288
 20
109.000000000
 30
0.000000000
 11
68.995574288
 21
109.000000000
 31
0.000000000
  0
ARC
  5
A39
330
A02
100
AcDbEntity
  8
Body_Unfold_Sketch_Internal
100
AcDbCircle
 10
68.995574288
 20
105.000000000
 30
0.000000000
 40
4.000000000
100
AcDbArc
 50
-90.000000000
 51
90.000000000
  0
LINE
  5
A3A
330
A02
100
AcDbEntity
  8
Body_Unfold_Sketch_Internal
100
AcDbLine
 10
68.995574288
 20
101.000000000
 30
0.000000000
 11
56.995574288
 21
101.000000000
 31
0.000000000
  0
LINE
  5
A3B
330
A02
100
AcDbEntity
  8
Body_Unfold_Sketch_Internal
100
AcDbLine
 10
56.995574288
 20
101.000000000
 30
0.000000000
 11
52.283185307
 21
101.000000000
 31
0.000000000
  0
LINE
  5
A3C
330
A02
100
AcDbEntity
  8
Body_Unfold_Sketch_Internal
100
AcDbLine
 10
52.283185307
 20
101.000000000
 30
0.000000000
 11
38.283185307
 21
101.000000000
 31
0.000000000
  0
LINE
  5
A3D
330
A02
100
AcDbEntity
  8
Body_Unfold_Sketch_Internal
100
AcDbLine
 10
52.283185307
 20
26.000000000
 30
0.000000000
 11
56.995574288
 21
26.000000000
 31
0.000000000
  0
LINE
  5
A3E
330
A02
100
AcDbEntity
  8
Body_Unfold_Sketch_Internal
100
AcDbLine
 10
56.995574288
 20
26.000000000
 30
0.000000000
 11
68.995574288
 21
26.000000000
 31
0.000000000
  0
ARC
  5
A3F
330
A02
100
AcDbEntity
  8
Body_Unfold_Sketch_Internal
100
AcDbCircle
 10
68.995574288
 20
30.000000000
 30
0.000000000
 40
4.000000000
100
AcDbArc
 50
-90.000000000
 51
90.000000000
  0
LINE
  5
A40
330
A02
100
AcDbEntity
  8
Body_Unfold_Sketch_Internal
100
AcDbLine
 10
68.995574288
 20
34.000000000
 30
0.000000000
 11
56.995574288
 21
34.000000000
 31
0.000000000
  0
LINE
  5
A41
330
A02
100
AcDbEntity
  8
Body_Unfold_Sketch_Internal
100
AcDbLine
 10
56.995574288
 20
34.000000000
 30
0.000000000
 11
52.283185307
 21
34.000000000
 31
0.000000000
  0
LINE
  5
A42
330
A02
100
AcDbEntity
  8
Body_Unfold_Sketch_Internal
100
AcDbLine
 10
52.283185307
 20
34.000000000
 30
0.000000000
 11
38.283185307
 21
34.000000000
 31
0.000000000
  0
ARC
  5
A43
330
A02
100
AcDbEntity
  8
Body_Unfold_Sketch_Internal
100
AcDbCircle
 10
38.283185307
 20
30.000000000
 30
0.000000000
 40
4.000000000
100
AcDbArc
 50
90.000000000
 51
-90.000000000
  0
LINE
  5
A44
330
A02
100
AcDbEntity
  8
Body_Unfold_Sketch_Internal
100
AcDbLine
 10
38.283185307
 20
26.000000000
 30
0.000000000
 11
52.283185307
 21
26.000000000
 31
0.000000000
  0
ARC
  5
A45
330
A02
100
AcDbEntity
  8
Body_Unfold_Sketch_Internal
100
AcDbCircle
 10
38.283185307
 20
90.000000000
 30
0.000000000
 40
4.000000000
100
AcDbArc
 50
90.000000000
 51
-90.000000000
  0
LINE
  5
A46
330
A02
100
AcDbEntity
  8
Body_Unfold_Sketch_Internal
100
AcDbLine
 10
38.283185307
 20
94.000000000
 30
0.000000000
 11
52.283185307
 21
94.000000000
 31
0.000000000
  0
LINE
  5
A47
330
A02
100
AcDbEntity
  8
Body_Unfold_Sketch_Internal
100
AcDbLine
 10
52.283185307
 20
94.000000000
 30
0.000000000
 11
56.995574288
 21
94.000000000
 31
0.000000000
  0
LINE
  5
A48
330
A02
100
AcDbEntity
  8
Body_Unfold_Sketch_Internal
100
AcDbLine
 10
56.995574288
 20
94.000000000
 30
0.000000000
 11
68.995574288
 21
94.000000000
 31
0.000000000
  0
ARC
  5
A49
330
A02
100
AcDbEntity
  8
Body_Unfold_Sketch_Internal
100
AcDbCircle
 10
68.995574288
 20
90.000000000
 30
0.000000000
 40
4.000000000
100
AcDbArc
 50
-90.000000000
 51
90.000000000
  0
LINE
  5
A4A
330
A02
100
AcDbEntity
  8
Body_Unfold_Sketch_Internal
100
AcDbLine
 10
68.995574288
 20
86.000000000
 30
0.000000000
 11
56.995574288
 21
86.000000000
 31
0.000000000
  0
LINE
  5
A4B
330
A02
100
AcDbEntity
  8
Body_Unfold_Sketch_Internal
100
AcDbLine
 10
56.995574288
 20
86.000000000
 30
0.000000000
 11
52.283185307
 21
86.000000000
 31
0.000000000
  0
LINE
  5
A4C
330
A02
100
AcDbEntity
  8
Body_Unfold_Sketch_Internal
100
AcDbLine
 10
52.283185307
 20
86.000000000
 30
0.000000000
 11
38.283185307
 21
86.000000000
 31
0.000000000
  0
LINE
  5
A4D
330
A02
100
AcDbEntity
  8
Body_Unfold_Sketch_Internal
100
AcDbLine
 10
52.283185307
 20
41.000000000
 30
0.000000000
 11
56.995574288
 21
41.000000000
 31
0.000000000
  0
LINE
  5
A4E
330
A02
100
AcDbEntity
  8
Body_Unfold_Sketch_Internal
100
AcDbLine
 10
56.995574288
 20
41.000000000
 30
0.000000000
 11
68.995574288
 21
41.000000000
 31
0.000000000
  0
ARC
  5
A4F
330
A02
100
AcDbEntity
  8
Body_Unfold_Sketch_Internal
100
AcDbCircle
 10
68.995574288
 20
45.000000000
 30
0.000000000
 40
4.000000000
100
AcDbArc
 50
-90.000000000
 51
90.000000000
  0
LINE
  5
A50
330
A02
100
AcDbEntity
  8
Body_Unfold_Sketch_Internal
100
AcDbLine
 10
68.995574288
 20
49.000000000
 30
0.000000000
 11
56.995574288
 21
49.000000000
 31
0.000000000
  0
LINE
  5
A51
330
A02
100
AcDbEntity
  8
Body_Unfold_Sketch_Internal
100
AcDbLine
 10
56.995574288
 20
49.000000000
 30
0.000000000
 11
52.283185307
 21
49.000000000
 31
0.000000000
  0
LINE
  5
A52
330
A02
100
AcDbEntity
  8
Body_Unfold_Sketch_Internal
100
AcDbLine
 10
52.283185307
 20
49.000000000
 30
0.000000000
 11
38.283185307
 21
49.000000000
 31
0.000000000
  0
ARC
  5
A53
330
A02
100
AcDbEntity
  8
Body_Unfold_Sketch_Internal
100
AcDbCircle
 10
38.283185307
 20
45.000000000
 30
0.000000000
 40
4.000000000
100
AcDbArc
 50
90.000000000
 51
-90.000000000
  0
LINE
  5
A54
330
A02
100
AcDbEntity
  8
Body_Unfold_Sketch_Internal
100
AcDbLine
 10
38.283185307
 20
41.000000000
 30
0.000000000
 11
52.283185307
 21
41.000000000
 31
0.000000000
  0
ARC
  5
A55
330
A02
100
AcDbEntity
  8
Body_Unfold_Sketch_Internal
100
AcDbCircle
 10
38.283185307
 20
75.000000000
 30
0.000000000
 40
4.000000000
100
AcDbArc
 50
90.000000000
 51
-90.000000000
  0
LINE
  5
A56
330
A02
100
AcDbEntity
  8
Body_Unfold_Sketch_Internal
100
AcDbLine
 10
38.283185307
 20
79.000000000
 30
0.000000000
 11
52.283185307
 21
79.000000000
 31
0.000000000
  0
LINE
  5
A57
330
A02
100
AcDbEntity
  8
Body_Unfold_Sketch_Internal
100
AcDbLine
 10
52.283185307
 20
79.000000000
 30
0.000000000
 11
56.995574288
 21
79.000000000
 31
0.000000000
  0
LINE
  5
A58
330
A02
100
AcDbEntity
  8
Body_Unfold_Sketch_Internal
100
AcDbLine
 10
56.995574288
 20
79.000000000
 30
0.000000000
 11
68.995574288
 21
79.000000000
 31
0.000000000
  0
ARC
  5
A59
330
A02
100
AcDbEntity
  8
Body_Unfold_Sketch_Internal
100
AcDbCircle
 10
68.995574288
 20
75.000000000
 30
0.000000000
 40
4.000000000
100
AcDbArc
 50
-90.000000000
 51
90.000000000
  0
LINE
  5
A5A
330
A02
100
AcDbEntity
  8
Body_Unfold_Sketch_Internal
100
AcDbLine
 10
68.995574288
 20
71.000000000
 30
0.000000000
 11
56.995574288
 21
71.000000000
 31
0.000000000
  0
LINE
  5
A5B
330
A02
100
AcDbEntity
  8
Body_Unfold_Sketch_Internal
100
AcDbLine
 10
56.995574288
 20
71.000000000
 30
0.000000000
 11
52.283185307
 21
71.000000000
 31
0.000000000
  0
LINE
  5
A5C
330
A02
100
AcDbEntity
  8
Body_Unfold_Sketch_Internal
100
AcDbLine
 10
52.283185307
 20
71.000000000
 30
0.000000000
 11
38.283185307
 21
71.000000000
 31
0.000000000
  0
LINE
  5
A5D
330
A02
100
AcDbEntity
  8
Body_Unfold_Sketch_Internal
100
AcDbLine
 10
52.283185307
 20
56.000000000
 30
0.000000000
 11
56.995574288
 21
56.000000000
 31
0.000000000
  0
LINE
  5
A5E
330
A02
100
AcDbEntity
  8
Body_Unfold_Sketch_Internal
100
AcDbLine
 10
56.995574288
 20
56.000000000
 30
0.000000000
 11
68.995574288
 21
56.000000000
 31
0.000000000
  0
ARC
  5
A5F
330
A02
100
AcDbEntity
  8
Body_Unfold_Sketch_Internal
100
AcDbCircle
 10
68.995574288
 20
60.000000000
 30
0.000000000
 40
4.000000000
100
AcDbArc
 50
-90.000000000
 51
90.000000000
  0
LINE
  5
A60
330
A02
100
AcDbEntity
  8
Body_Unfold_Sketch_Internal
100
AcDbLine
 10
68.995574288
 20
64.000000000
 30
0.000000000
 11
56.995574288
 21
64.000000000
 31
0.000000000
  0
LINE
  5
A61
330
A02
100
AcDbEntity
  8
Body_Unfold_Sketch_Internal
100
AcDbLine
 10
56.995574288
 20
64.000000000
 30
0.000000000
 11
52.283185307
 21
64.000000000
 31
0.000000000
  0
LINE
  5
A62
330
A02
100
AcDbEntity
  8
Body_Unfold_Sketch_Internal
100
AcDbLine
 10
52.283185307
 20
64.000000000
 30
0.000000000
 11
38.283185307
 21
64.000000000
 31
0.000000000
  0
ARC
  5
A63
330
A02
100
AcDbEntity
  8
Body_Unfold_Sketch_Internal
100
AcDbCircle
 10
38.283185307
 20
60.000000000
 30
0.000000000
 40
4.000000000
100
AcDbArc
 50
90.000000000
 51
-90.000000000
  0
LINE
  5
A64
330
A02
100
AcDbEntity
  8
Body_Unfold_Sketch_Internal
100
AcDbLine
 10
38.283185307
 20
56.000000000
 30
0.000000000
 11
52.283185307
 21
56.000000000
 31
0.000000000
  0
CIRCLE
  5
A65
330
A02
100
AcDbEntity
  8
Body_Unfold_Sketch_Holes
100
AcDbCircle
 10
130.495574288
 20
60.000000000
 30
0.000000000
 40
29.640930107
  0
CIRCLE
  5
A66
330
A02
100
AcDbEntity
  8
Body_Unfold_Sketch_Holes
100
AcDbCircle
 10
87.995574288
 20
20.000000000
 30
0.000000000
 40
7.400415076
  0
CIRCLE
  5
A67
330
A02
100
AcDbEntity
  8
Body_Unfold_Sketch_Holes
100
AcDbCircle
 10
172.995574288
 20
20.000000000
 30
0.000000000
 40
7.400415076
  0
CIRCLE
  5
A68
330
A02
100
AcDbEntity
  8
Body_Unfold_Sketch_Holes
100
AcDbCircle
 10
212.995574288
 20
15.000000000
 30
0.000000000
 40
7.400415076
  0
CIRCLE
  5
A69
330
A02
100
AcDbEntity
  8
Body_Unfold_Sketch_Holes
100
AcDbCircle
 10
237.995574288
 20
15.000000000
 30
0.000000000
 40
7.400415076
  0
CIRCLE
  5
A6A
330
A02
100
AcDbEntity
  8
Body_Unfold_Sketch_Holes
100
AcDbCircle
 10
262.995574288
 20
15.000000000
 30
0.000000000
 40
7.400415076
  0
CIRCLE
  5
A6B
330
A02
100
AcDbEntity
  8
Body_Unfold_Sketch_Holes
100
AcDbCircle
 10
212.995574288
 20
45.000000000
 30
0.000000000
 40
7.400415076
  0
CIRCLE
  5
A6C
330
A02
100
AcDbEntity
  8
Body_Unfold_Sketch_Holes
100
AcDbCircle
 10
237.995574288
 20
45.000000000
 30
0.000000000
 40
7.400415076
  0
CIRCLE
  5
A6D
330
A02
100
AcDbEntity
  8
Body_Unfold_Sketch_Holes
100
AcDbCircle
 10
262.995574288
 20
45.000000000
 30
0.000000000
 40
7.400415076
  0
CIRCLE
  5
A6E
330
A02
100
AcDbEntity
  8
Body_Unfold_Sketch_Holes
100
AcDbCircle
 10
87.995574288
 20
100.000000000
 30
0.000000000
 40
7.400415076
  0
CIRCLE
  5
A6F
330
A02
100
AcDbEntity
  8
Body_Unfold_Sketch_Holes
100
AcDbCircle
 10
172.995574288
 20
100.000000000
 30
0.000000000
 40
7.400415076
  0
CIRCLE
  5
A70
330
A02
100
AcDbEntity
  8
Body_Unfold_Sketch_Holes
100
AcDbCircle
 10
234.707963268
 20
105.000000000
 30
0.000000000
 40
6.000000000
  0
LINE
  5
A71
330
A02
100
AcDbEntity
  8
Body_Unfold_Sketch_Bend_Labels
100
AcDbLine
 10
56.506046464
 20
6.700000000
 30
0.000000000
 11
56.506046464
 21
7.500000000
 31
0.000000000
  0
ARC
  5
A72
330
A02
100
AcDbEntity
  8
Body_Unfold_Sketch_Bend_Labels
100
AcDbCircle
 10
56.906046464
 20
7.500000000
 30
0.000000000
 40
0.400000000
100
AcDbArc
 50
-0.000000000
 51
-180.000000000
  0
LINE
  5
A73
330
A02
100
AcDbEntity
  8
Body_Unfold_Sketch_Bend_Labels
100
AcDbLine
 10
57.306046464
 20
7.500000000
 30
0.000000000
 11
57.306046464
 21
7.100000000
 31
0.000000000
  0
ARC
  5
A74
330
A02
100
AcDbEntity
  8
Body_Unfold_Sketch_Bend_Labels
100
AcDbCircle
 10
56.906046464
 20
7.100000000
 30
0.000000000
 40
0.400000000
100
AcDbArc
 50
-90.000000000
 51
0.000000000
  0
LINE
  5
A75
330
A02
100
AcDbEntity
  8
Body_Unfold_Sketch_Bend_Labels
100
AcDbLine
 10
56.906046464
 20
6.700000000
 30
0.000000000
 11
55.706046464
 21
6.700000000
 31
0.000000000
  0
ARC
  5
A76
330
A02
100
AcDbEntity
  8
Body_Unfold_Sketch_Bend_Labels
100
AcDbCircle
 10
55.706046464
 20
7.100000000
 30
0.000000000
 40
0.400000000
100
AcDbArc
 50
-180.000000000
 51
-90.000000000
  0
LINE
  5
A77
330
A02
100
AcDbEntity
  8
Body_Unfold_Sketch_Bend_Labels
100
AcDbLine
 10
55.306046464
 20
7.100000000
 30
0.000000000
 11
55.306046464
 21
7.500000000
 31
0.000000000
  0
ARC
  5
A78
330
A02
100
AcDbEntity
  8
Body_Unfold_Sketch_Bend_Labels
100
AcDbCircle
 10
55.706046464
 20
7.500000000
 30
0.000000000
 40
0.400000000
100
AcDbArc
 50
90.000000000
 51
180.000000000
  0
LINE
  5
A79
330
A02
100
AcDbEntity
  8
Body_Unfold_Sketch_Bend_Labels
100
AcDbLine
 10
55.706046464
 20
6.300000000
 30
0.000000000
 11
56.906046464
 21
6.300000000
 31
0.000000000
  0
ARC
  5
A7A
330
A02
100
AcDbEntity
  8
Body_Unfold_Sketch_Bend_Labels
100
AcDbCircle
 10
56.906046464
 20
5.900000000
 30
0.000000000
 40
0.400000000
100
AcDbArc
 50
0.000000000
 51
90.000000000
  0
LINE
  5
A7B
330
A02
100
AcDbEntity
  8
Body_Unfold_Sketch_Bend_Labels
100
AcDbLine
 10
57.306046464
 20
5.900000000
 30
0.000000000
 11
57.306046464
 21
5.500000000
 31
0.000000000
  0
ARC
  5
A7C
330
A02
100
AcDbEntity
  8
Body_Unfold_Sketch_Bend_Labels
100
AcDbCircle
 10
56.906046464
 20
5.500000000
 30
0.000000000
 40
0.400000000
100
AcDbArc
 50
-90.000000000
 51
-0.000000000
  0
LINE
  5
A7D
330
A02
100
AcDbEntity
  8
Body_Unfold_Sketch_Bend_Labels
100
AcDbLine
 10
56.906046464
 20
5.100000000
 30
0.000000000
 11
55.706046464
 21
5.100000000
 31
0.000000000
  0
ARC
  5
A7E
330
A02
100
AcDbEntity
  8
Body_Unfold_Sketch_Bend_Labels
100
AcDbCircle
 10
55.706046464
 20
5.500000000
 30
0.000000000
 40
0.400000000
100
AcDbArc
 50
-180.000000000
 51
-90.000000000
  0
LINE
  5
A7F
330
A02
100
AcDbEntity
  8
Body_Unfold_Sketch_Bend_Labels
100
AcDbLine
 10
55.306046464
 20
5.500000000
 30
0.000000000
 11
55.306046464
 21
5.900000000
 31
0.000000000
  0
ARC
  5
A80
330
A02
100
AcDbEntity
  8
Body_Unfold_Sketch_Bend_Labels
100
AcDbCircle
 10
55.706046464
 20
5.900000000
 30
0.000000000
 40
0.400000000
100
AcDbArc
 50
90.000000000
 51
180.000000000
  0
CIRCLE
  5
A81
330
A02
100
AcDbEntity
  8
Body_Unfold_Sketch_Bend_Labels
100
AcDbCircle
 10
56.906046464
 20
4.300000000
 30
0.000000000
 40
0.400000000
  0
LINE
  5
A82
330
A02
100
AcDbEntity
  8
Body_Unfold_Sketch_Bend_Labels
100
AcDbLine
 10
199.685102111
 20
101.800000000
 30
0.000000000
 11
199.685102111
 21
103.000000000
 31
0.000000000
  0
LINE
  5
A83
330
A02
100
AcDbEntity
  8
Body_Unfold_Sketch_Bend_Labels
100
AcDbLine
 10
199.485102111
 20
104.600000000
 30
0.000000000
 11
199.485102111
 21
103.800000000
 31
0.000000000
  0
ARC
  5
A84
330
A02
100
AcDbEntity
  8
Body_Unfold_Sketch_Bend_Labels
100
AcDbCircle
 10
199.085102111
 20
103.800000000
 30
0.000000000
 40
0.400000000
100
AcDbArc
 50
180.000000000
 51
0.000000000
  0
LINE
  5
A85
330
A02
100
AcDbEntity
  8
Body_Unfold_Sketch_Bend_Labels
100
AcDbLine
 10
198.685102111
 20
103.800000000
 30
0.000000000
 11
198.685102111
 21
104.200000000
 31
0.000000000
  0
ARC
  5
A86
330
A02
100
AcDbEntity
  8
Body_Unfold_Sketch_Bend_Labels
100
AcDbCircle
 10
199.085102111
 20
104.200000000
 30
0.000000000
 40
0.400000000
100
AcDbArc
 50
90.000000000
 51
-180.000000000
  0
LINE
  5
A87
330
A02
100
AcDbEntity
  8
Body_Unfold_Sketch_Bend_Labels
100
AcDbLine
 10
199.085102111
 20
104.600000000
 30
0.000000000
 11
200.285102111
 21
104.600000000
 31
0.000000000
  0
ARC
  5
A88
330
A02
100
AcDbEntity
  8
Body_Unfold_Sketch_Bend_Labels
100
AcDbCircle
 10
200.285102111
 20
104.200000000
 30
0.000000000
 40
0.400000000
100
AcDbArc
 50
-0.000000000
 51
90.000000000
  0
LINE
  5
A89
330
A02
100
AcDbEntity
  8
Body_Unfold_Sketch_Bend_Labels
100
AcDbLine
 10
200.685102111
 20
104.200000000
 30
0.000000000
 11
200.685102111
 21
103.800000000
 31
0.000000000
  0
ARC
  5
A8A
330
A02
100
AcDbEntity
  8
Body_Unfold_Sketch_Bend_Labels
100
AcDbCircle
 10
200.285102111
 20
103.800000000
 30
0.000000000
 40
0.400000000
100
AcDbArc
 50
-90.000000000
 51
0.000000000
  0
LINE
  5
A8B
330
A02
100
AcDbEntity
  8
Body_Unfold_Sketch_Bend_Labels
100
AcDbLine
 10
200.285102111
 20
105.000000000
 30
0.000000000
 11
199.085102111
 21
105.000000000
 31
0.000000000
  0
ARC
  5
A8C
330
A02
100
AcDbEntity
  8
Body_Unfold_Sketch_Bend_Labels
100
AcDbCircle
 10
199.085102111
 20
105.400000000
 30
0.000000000
 40
0.400000000
100
AcDbArc
 50
-180.000000000
 51
-90.000000000
  0
LINE
  5
A8D
330
A02
100
AcDbEntity
  8
Body_Unfold_Sketch_Bend_Labels
100
AcDbLine
 10
198.685102111
 20
105.400000000
 30
0.000000000
 11
198.685102111
 21
105.800000000
 31
0.000000000
  0
ARC
  5
A8E
330
A02
100
AcDbEntity
  8
Body_Unfold_Sketch_Bend_Labels
100
AcDbCircle
 10
199.085102111
 20
105.800000000
 30
0.000000000
 40
0.400000000
100
AcDbArc
 50
90.000000000
 51
-180.000000000
  0
LINE
  5
A8F
330
A02
100
AcDbEntity
  8
Body_Unfold_Sketch_Bend_Labels
100
AcDbLine
 10
199.085102111
 20
106.200000000
 30
0.000000000
 11
200.285102111
 21
106.200000000
 31
0.000000000
  0
ARC
  5
A90
330
A02
100
AcDbEntity
  8
Body_Unfold_Sketch_Bend_Labels
100
AcDbCircle
 10
200.285102111
 20
105.800000000
 30
0.000000000
 40
0.400000000
100
AcDbArc
 50
-0.000000000
 51
90.000000000
  0
LINE
  5
A91
330
A02
100
AcDbEntity
  8
Body_Unfold_Sketch_Bend_Labels
100
AcDbLine
 10
200.685102111
 20
105.800000000
 30
0.000000000
 11
200.685102111
 21
105.400000000
 31
0.000000000
  0
ARC
  5
A92
330
A02
100
AcDbEntity
  8
Body_Unfold_Sketch_Bend_Labels
100
AcDbCircle
 10
200.285102111
 20
105.400000000
 30
0.000000000
 40
0.400000000
100
AcDbArc
 50
-90.000000000
 51
-0.000000000
  0
CIRCLE
  5
A93
330
A02
100
AcDbEntity
  8
Body_Unfold_Sketch_Bend_Labels
100
AcDbCircle
 10
199.085102111
 20
107.000000000
 30
0.000000000
 40
0.400000000
  0
LINE
  5
A94
330
A02
100
AcDbEntity
  8
Body_Unfold_Sketch_Bend_Labels
100
AcDbLine
 10
56.506046464
 20
115.700000000
 30
0.000000000
 11
56.506046464
 21
116.500000000
 31
0.000000000
  0
ARC
  5
A95
330
A02
100
AcDbEntity
  8
Body_Unfold_Sketch_Bend_Labels
100
AcDbCircle
 10
56.906046464
 20
116.500000000
 30
0.000000000
 40
0.400000000
100
AcDbArc
 50
-0.000000000
 51
-180.000000000
  0
LINE
  5
A96
330
A02
100
AcDbEntity
  8
Body_Unfold_Sketch_Bend_Labels
100
AcDbLine
 10
57.306046464
 20
116.500000000
 30
0.000000000
 11
57.306046464
 21
116.100000000
 31
0.000000000
  0
ARC
  5
A97
330
A02
100
AcDbEntity
  8
Body_Unfold_Sketch_Bend_Labels
100
AcDbCircle
 10
56.906046464
 20
116.100000000
 30
0.000000000
 40
0.400000000
100
AcDbArc
 50
-90.000000000
 51
0.000000000
  0
LINE
  5
A98
330
A02
100
AcDbEntity
  8
Body_Unfold_Sketch_Bend_Labels
100
AcDbLine
 10
56.906046464
 20
115.700000000
 30
0.000000000
 11
55.706046464
 21
115.700000000
 31
0.000000000
  0
ARC
  5
A99
330
A02
100
AcDbEntity
  8
Body_Unfold_Sketch_Bend_Labels
100
AcDbCircle
 10
55.706046464
 20
116.100000000
 30
0.000000000
 40
0.400000000
100
AcDbArc
 50
180.000000000
 51
-90.000000000
  0
LINE
  5
A9A
330
A02
100
AcDbEntity
  8
Body_Unfold_Sketch_Bend_Labels
100
AcDbLine
 10
55.306046464
 20
116.100000000
 30
0.000000000
 11
55.306046464
 21
116.500000000
 31
0.000000000
  0
ARC
  5
A9B
330
A02
100
AcDbEntity
  8
Body_Unfold_Sketch_Bend_Labels
100
AcDbCircle
 10
55.706046464
 20
116.500000000
 30
0.000000000
 40
0.400000000
100
AcDbArc
 50
90.000000000
 51
180.000000000
  0
LINE
  5
A9C
330
A02
100
AcDbEntity
  8
Body_Unfold_Sketch_Bend_Labels
100
AcDbLine
 10
55.706046464
 20
115.300000000
 30
0.000000000
 11
56.906046464
 21
115.300000000
 31
0.000000000
  0
ARC
  5
A9D
330
A02
100
AcDbEntity
  8
Body_Unfold_Sketch_Bend_Labels
100
AcDbCircle
 10
56.906046464
 20
114.900000000
 30
0.000000000
 40
0.400000000
100
AcDbArc
 50
0.000000000
 51
90.000000000
  0
LINE
  5
A9E
330
A02
100
AcDbEntity
  8
Body_Unfold_Sketch_Bend_Labels
100
AcDbLine
 10
57.306046464
 20
114.900000000
 30
0.000000000
 11
57.306046464
 21
114.500000000
 31
0.000000000
  0
ARC
  5
A9F
330
A02
100
AcDbEntity
  8
Body_Unfold_Sketch_Bend_Labels
100
AcDbCircle
 10
56.906046464
 20
114.500000000
 30
0.000000000
 40
0.400000000
100
AcDbArc
 50
-90.000000000
 51
-0.000000000
  0
LINE
  5
AA0
330
A02
100
AcDbEntity
  8
Body_Unfold_Sketch_Bend_Labels
100
AcDbLine
 10
56.906046464
 20
114.100000000
 30
0.000000000
 11
55.706046464
 21
114.100000000
 31
0.000000000
  0
ARC
  5
AA1
330
A02
100
AcDbEntity
  8
Body_Unfold_Sketch_Bend_Labels
100
AcDbCircle
 10
55.706046464
 20
114.500000000
 30
0.000000000
 40
0.400000000
100
AcDbArc
 50
-180.000000000
 51
-90.000000000
  0
LINE
  5
AA2
330
A02
100
AcDbEntity
  8
Body_Unfold_Sketch_Bend_Labels
100
AcDbLine
 10
55.306046464
 20
114.500000000
 30
0.000000000
 11
55.306046464
 21
114.900000000
 31
0.000000000
  0
ARC
  5
AA3
330
A02
100
AcDbEntity
  8
Body_Unfold_Sketch_Bend_Labels
100
AcDbCircle
 10
55.706046464
 20
114.900000000
 30
0.000000000
 40
0.400000000
100
AcDbArc
 50
90.000000000
 51
180.000000000
  0
CIRCLE
  5
AA4
330
A02
100
AcDbEntity
  8
Body_Unfold_Sketch_Bend_Labels
100
AcDbCircle
 10
56.906046464
 20
113.300000000
 30
0.000000000
 40
0.400000000
  0
LINE
  5
AA5
330
A02
100
AcDbEntity
  8
Body_Unfold_Sketch_Bend_Labels
100
AcDbLine
 10
56.506046464
 20
23.700000000
 30
0.000000000
 11
56.506046464
 21
24.500000000
 31
0.000000000
  0
ARC
  5
AA6
330
A02
100
AcDbEntity
  8
Body_Unfold_Sketch_Bend_Labels
100
AcDbCircle
 10
56.906046464
 20
24.500000000
 30
0.000000000
 40
0.400000000
100
AcDbArc
 50
-0.000000000
 51
-180.000000000
  0
LINE
  5
AA7
330
A02
100
AcDbEntity
  8
Body_Unfold_Sketch_Bend_Labels
100
AcDbLine
 10
57.306046464
 20
24.500000000
 30
0.000000000
 11
57.306046464
 21
24.100000000
 31
0.000000000
  0
ARC
  5
AA8
330
A02
100
AcDbEntity
  8
Body_Unfold_Sketch_Bend_Labels
100
AcDbCircle
 10
56.906046464
 20
24.100000000
 30
0.000000000
 40
0.400000000
100
AcDbArc
 50
-90.000000000
 51
-0.000000000
  0
LINE
  5
AA9
330
A02
100
AcDbEntity
  8
Body_Unfold_Sketch_Bend_Labels
100
AcDbLine
 10
56.906046464
 20
23.700000000
 30
0.000000000
 11
55.706046464
 21
23.700000000
 31
0.000000000
  0
ARC
  5
AAA
330
A02
100
AcDbEntity
  8
Body_Unfold_Sketch_Bend_Labels
100
AcDbCircle
 10
55.706046464
 20
24.100000000
 30
0.000000000
 40
0.400000000
100
AcDbArc
 50
-180.000000000
 51
-90.000000000
  0
LINE
  5
AAB
330
A02
100
AcDbEntity
  8
Body_Unfold_Sketch_Bend_Labels
100
AcDbLine
 10
55.306046464
 20
24.100000000
 30
0.000000000
 11
55.306046464
 21
24.500000000
 31
0.000000000
  0
ARC
  5
AAC
330
A02
100
AcDbEntity
  8
Body_Unfold_Sketch_Bend_Labels
100
AcDbCircle
 10
55.706046464
 20
24.500000000
 30
0.000000000
 40
0.400000000
100
AcDbArc
 50
90.000000000
 51
180.000000000
  0
LINE
  5
AAD
330
A02
100
AcDbEntity
  8
Body_Unfold_Sketch_Bend_Labels
100
AcDbLine
 10
55.706046464
 20
23.300000000
 30
0.000000000
 11
56.906046464
 21
23.300000000
 31
0.000000000
  0
ARC
  5
AAE
330
A02
100
AcDbEntity
  8
Body_Unfold_Sketch_Bend_Labels
100
AcDbCircle
 10
56.906046464
 20
22.900000000
 30
0.000000000
 40
0.400000000
100
AcDbArc
 50
0.000000000
 51
90.000000000
  0
LINE
  5
AAF
330
A02
100
AcDbEntity
  8
Body_Unfold_Sketch_Bend_Labels
100
AcDbLine
 10
57.306046464
 20
22.900000000
 30
0.000000000
 11
57.306046464
 21
22.500000000
 31
0.000000000
  0
ARC
  5
AB0
330
A02
100
AcDbEntity
  8
Body_Unfold_Sketch_Bend_Labels
100
AcDbCircle
 10
56.906046464
 20
22.500000000
 30
0.000000000
 40
0.400000000
100
AcDbArc
 50
-90.000000000
 51
0.000000000
  0
LINE
  5
AB1
330
A02
100
AcDbEntity
  8
Body_Unfold_Sketch_Bend_Labels
100
AcDbLine
 10
56.906046464
 20
22.100000000
 30
0.000000000
 11
55.706046464
 21
22.100000000
 31
0.000000000
  0
ARC
  5
AB2
330
A02
100
AcDbEntity
  8
Body_Unfold_Sketch_Bend_Labels
100
AcDbCircle
 10
55.706046464
 20
22.500000000
 30
0.000000000
 40
0.400000000
100
AcDbArc
 50
180.000000000
 51
-90.000000000
  0
LINE
  5
AB3
330
A02
100
AcDbEntity
  8
Body_Unfold_Sketch_Bend_Labels
100
AcDbLine
 10
55.306046464
 20
22.500000000
 30
0.000000000
 11
55.306046464
 21
22.900000000
 31
0.000000000
  0
ARC
  5
AB4
330
A02
100
AcDbEntity
  8
Body_Unfold_Sketch_Bend_Labels
100
AcDbCircle
 10
55.706046464
 20
22.900000000
 30
0.000000000
 40
0.400000000
100
AcDbArc
 50
90.000000000
 51
180.000000000
  0
CIRCLE
  5
AB5
330
A02
100
AcDbEntity
  8
Body_Unfold_Sketch_Bend_Labels
100
AcDbCircle
 10
56.906046464
 20
21.300000000
 30
0.000000000
 40
0.400000000
  0
LINE
  5
AB6
330
A02
100
AcDbEntity
  8
Body_Unfold_Sketch_Bend_Labels
100
AcDbLine
 10
56.506046464
 20
98.700000000
 30
0.000000000
 11
56.506046464
 21
99.500000000
 31
0.000000000
  0
ARC
  5
AB7
330
A02
100
AcDbEntity
  8
Body_Unfold_Sketch_Bend_Labels
100
AcDbCircle
 10
56.906046464
 20
99.500000000
 30
0.000000000
 40
0.400000000
100
AcDbArc
 50
-0.000000000
 51
-180.000000000
  0
LINE
  5
AB8
330
A02
100
AcDbEntity
  8
Body_Unfold_Sketch_Bend_Labels
100
AcDbLine
 10
57.306046464
 20
99.500000000
 30
0.000000000
 11
57.306046464
 21
99.100000000
 31
0.000000000
  0
ARC
  5
AB9
330
A02
100
AcDbEntity
  8
Body_Unfold_Sketch_Bend_Labels
100
AcDbCircle
 10
56.906046464
 20
99.100000000
 30
0.000000000
 40
0.400000000
100
AcDbArc
 50
-90.000000000
 51
0.000000000
  0
LINE
  5
ABA
330
A02
100
AcDbEntity
  8
Body_Unfold_Sketch_Bend_Labels
100
AcDbLine
 10
56.906046464
 20
98.700000000
 30
0.000000000
 11
55.706046464
 21
98.700000000
 31
0.000000000
  0
ARC
  5
ABB
330
A02
100
AcDbEntity
  8
Body_Unfold_Sketch_Bend_Labels
100
AcDbCircle
 10
55.706046464
 20
99.100000000
 30
0.000000000
 40
0.400000000
100
AcDbArc
 50
180.000000000
 51
-90.000000000
  0
LINE
  5
ABC
330
A02
100
AcDbEntity
  8
Body_Unfold_Sketch_Bend_Labels
100
AcDbLine
 10
55.306046464
 20
99.100000000
 30
0.000000000
 11
55.306046464
 21
99.500000000
 31
0.000000000
  0
ARC
  5
ABD
330
A02
100
AcDbEntity
  8
Body_Unfold_Sketch_Bend_Labels
100
AcDbCircle
 10
55.706046464
 20
99.500000000
 30
0.000000000
 40
0.400000000
100
AcDbArc
 50
90.000000000
 51
180.000000000
  0
LINE
  5
ABE
330
A02
100
AcDbEntity
  8
Body_Unfold_Sketch_Bend_Labels
100
AcDbLine
 10
55.706046464
 20
98.300000000
 30
0.000000000
 11
56.906046464
 21
98.300000000
 31
0.000000000
  0
ARC
  5
ABF
330
A02
100
AcDbEntity
  8
Body_Unfold_Sketch_Bend_Labels
100
AcDbCircle
 10
56.906046464
 20
97.900000000
 30
0.000000000
 40
0.400000000
100
AcDbArc
 50
0.000000000
 51
90.000000000
  0
LINE
  5
AC0
330
A02
100
AcDbEntity
  8
Body_Unfold_Sketch_Bend_Labels
100
AcDbLine
 10
57.306046464
 20
97.900000000
 30
0.000000000
 11
57.306046464
 21
97.500000000
 31
0.000000000
  0
ARC
  5
AC1
330
A02
100
AcDbEntity
  8
Body_Unfold_Sketch_Bend_Labels
100
AcDbCircle
 10
56.906046464
 20
97.500000000
 30
0.000000000
 40
0.400000000
100
AcDbArc
 50
-90.000000000
 51
-0.000000000
  0
LINE
  5
AC2
330
A02
100
AcDbEntity
  8
Body_Unfold_Sketch_Bend_Labels
100
AcDbLine
 10
56.906046464
 20
97.100000000
 30
0.000000000
 11
55.706046464
 21
97.100000000
 31
0.000000000
  0
ARC
  5
AC3
330
A02
100
AcDbEntity
  8
Body_Unfold_Sketch_Bend_Labels
100
AcDbCircle
 10
55.706046464
 20
97.500000000
 30
0.000000000
 40
0.400000000
100
AcDbArc
 50
-180.000000000
 51
-90.000000000
  0
LINE
  5
AC4
330
A02
100
AcDbEntity
  8
Body_Unfold_Sketch_Bend_Labels
100
AcDbLine
 10
55.306046464
 20
97.500000000
 30
0.000000000
 11
55.306046464
 21
97.900000000
 31
0.000000000
  0
ARC
  5
AC5
330
A02
100
AcDbEntity
  8
Body_Unfold_Sketch_Bend_Labels
100
AcDbCircle
 10
55.706046464
 20
97.900000000
 30
0.000000000
 40
0.400000000
100
AcDbArc
 50
90.000000000
 51
180.000000000
  0
CIRCLE
  5
AC6
330
A02
100
AcDbEntity
  8
Body_Unfold_Sketch_Bend_Labels
100
AcDbCircle
 10
56.906046464
 20
96.300000000
 30
0.000000000
 40
0.400000000
  0
LINE
  5
AC7
330
A02
100
AcDbEntity
  8
Body_Unfold_Sketch_Bend_Labels
100
AcDbLine
 10
56.506046464
 20
38.700000000
 30
0.000000000
 11
56.506046464
 21
39.500000000
 31
0.000000000
  0
ARC
  5
AC8
330
A02
100
AcDbEntity
  8
Body_Unfold_Sketch_Bend_Labels
100
AcDbCircle
 10
56.906046464
 20
39.500000000
 30
0.000000000
 40
0.400000000
100
AcDbArc
 50
-0.000000000
 51
-180.000000000
  0
LINE
  5
AC9
330
A02
100
AcDbEntity
  8
Body_Unfold_Sketch_Bend_Labels
100
AcDbLine
 10
57.306046464
 20
39.500000000
 30
0.000000000
 11
57.306046464
 21
39.100000000
 31
0.000000000
  0
ARC
  5
ACA
330
A02
100
AcDbEntity
  8
Body_Unfold_Sketch_Bend_Labels
100
AcDbCircle
 10
56.906046464
 20
39.100000000
 30
0.000000000
 40
0.400000000
100
AcDbArc
 50
-90.000000000
 51
0.000000000
  0
LINE
  5
ACB
330
A02
100
AcDbEntity
  8
Body_Unfold_Sketch_Bend_Labels
100
AcDbLine
 10
56.906046464
 20
38.700000000
 30
0.000000000
 11
55.706046464
 21
38.700000000
 31
0.000000000
  0
ARC
  5
ACC
330
A02
100
AcDbEntity
  8
Body_Unfold_Sketch_Bend_Labels
100
AcDbCircle
 10
55.706046464
 20
39.100000000
 30
0.000000000
 40
0.400000000
100
AcDbArc
 50
180.000000000
 51
-90.000000000
  0
LINE
  5
ACD
330
A02
100
AcDbEntity
  8
Body_Unfold_Sketch_Bend_Labels
100
AcDbLine
 10
55.306046464
 20
39.100000000
 30
0.000000000
 11
55.306046464
 21
39.500000000
 31
0.000000000
  0
ARC
  5
ACE
330
A02
100
AcDbEntity
  8
Body_Unfold_Sketch_Bend_Labels
100
AcDbCircle
 10
55.706046464
 20
39.500000000
 30
0.000000000
 40
0.400000000
100
AcDbArc
 50
90.000000000
 51
180.000000000
  0
LINE
  5
ACF
330
A02
100
AcDbEntity
  8
Body_Unfold_Sketch_Bend_Labels
100
AcDbLine
 10
55.706046464
 20
38.300000000
 30
0.000000000
 11
56.906046464
 21
38.300000000
 31
0.000000000
  0
ARC
  5
AD0
330
A02
100
AcDbEntity
  8
Body_Unfold_Sketch_Bend_Labels
100
AcDbCircle
 10
56.906046464
 20
37.900000000
 30
0.000000000
 40
0.400000000
100
AcDbArc
 50
0.000000000
 51
90.000000000
  0
LINE
  5
AD1
330
A02
100
AcDbEntity
  8
Body_Unfold_Sketch_Bend_Labels
100
AcDbLine
 10
57.306046464
 20
37.900000000
 30
0.000000000
 11
57.306046464
 21
37.500000000
 31
0.000000000
  0
ARC
  5
AD2
330
A02
100
AcDbEntity
  8
Body_Unfold_Sketch_Bend_Labels
100
AcDbCircle
 10
56.906046464
 20
37.500000000
 30
0.000000000
 40
0.400000000
100
AcDbArc
 50
-90.000000000
 51
0.000000000
  0
LINE
  5
AD3
330
A02
100
AcDbEntity
  8
Body_Unfold_Sketch_Bend_Labels
100
AcDbLine
 10
56.906046464
 20
37.100000000
 30
0.000000000
 11
55.706046464
 21
37.100000000
 31
0.000000000
  0
ARC
  5
AD4
330
A02
100
AcDbEntity
  8
Body_Unfold_Sketch_Bend_Labels
100
AcDbCircle
 10
55.706046464
 20
37.500000000
 30
0.000000000
 40
0.400000000
100
AcDbArc
 50
180.000000000
 51
-90.000000000
  0
LINE
  5
AD5
330
A02
100
AcDbEntity
  8
Body_Unfold_Sketch_Bend_Labels
100
AcDbLine
 10
55.306046464
 20
37.500000000
 30
0.000000000
 11
55.306046464
 21
37.900000000
 31
0.000000000
  0
ARC
  5
AD6
330
A02
100
AcDbEntity
  8
Body_Unfold_Sketch_Bend_Labels
100
AcDbCircle
 10
55.706046464
 20
37.900000000
 30
0.000000000
 40
0.400000000
100
AcDbArc
 50
90.000000000
 51
180.000000000
  0
CIRCLE
  5
AD7
330
A02
100
AcDbEntity
  8
Body_Unfold_Sketch_Bend_Labels
100
AcDbCircle
 10
56.906046464
 20
36.300000000
 30
0.000000000
 40
0.400000000
  0
LINE
  5
AD8
330
A02
100
AcDbEntity
  8
Body_Unfold_Sketch_Bend_Labels
100
AcDbLine
 10
56.506046464
 20
83.700000000
 30
0.000000000
 11
56.506046464
 21
84.500000000
 31
0.000000000
  0
ARC
  5
AD9
330
A02
100
AcDbEntity
  8
Body_Unfold_Sketch_Bend_Labels
100
AcDbCircle
 10
56.906046464
 20
84.500000000
 30
0.000000000
 40
0.400000000
100
AcDbArc
 50
-0.000000000
 51
-180.000000000
  0
LINE
  5
ADA
330
A02
100
AcDbEntity
  8
Body_Unfold_Sketch_Bend_Labels
100
AcDbLine
 10
57.306046464
 20
84.500000000
 30
0.000000000
 11
57.306046464
 21
84.100000000
 31
0.000000000
  0
ARC
  5
ADB
330
A02
100
AcDbEntity
  8
Body_Unfold_Sketch_Bend_Labels
100
AcDbCircle
 10
56.906046464
 20
84.100000000
 30
0.000000000
 40
0.400000000
100
AcDbArc
 50
-90.000000000
 51
0.000000000
  0
LINE
  5
ADC
330
A02
100
AcDbEntity
  8
Body_Unfold_Sketch_Bend_Labels
100
AcDbLine
 10
56.906046464
 20
83.700000000
 30
0.000000000
 11
55.706046464
 21
83.700000000
 31
0.000000000
  0
ARC
  5
ADD
330
A02
100
AcDbEntity
  8
Body_Unfold_Sketch_Bend_Labels
100
AcDbCircle
 10
55.706046464
 20
84.100000000
 30
0.000000000
 40
0.400000000
100
AcDbArc
 50
180.000000000
 51
-90.000000000
  0
LINE
  5
ADE
330
A02
100
AcDbEntity
  8
Body_Unfold_Sketch_Bend_Labels
100
AcDbLine
 10
55.306046464
 20
84.100000000
 30
0.000000000
 11
55.306046464
 21
84.500000000
 31
0.000000000
  0
ARC
  5
ADF
330
A02
100
AcDbEntity
  8
Body_Unfold_Sketch_Bend_Labels
100
AcDbCircle
 10
55.706046464
 20
84.500000000
 30
0.000000000
 40
0.400000000
100
AcDbArc
 50
90.000000000
 51
180.000000000
  0
LINE
  5
AE0
330
A02
100
AcDbEntity
  8
Body_Unfold_Sketch_Bend_Labels
100
AcDbLine
 10
55.706046464
 20
83.300000000
 30
0.000000000
 11
56.906046464
 21
83.300000000
 31
0.000000000
  0
ARC
  5
AE1
330
A02
100
AcDbEntity
  8
Body_Unfold_Sketch_Bend_Labels
100
AcDbCircle
 10
56.906046464
 20
82.900000000
 30
0.000000000
 40
0.400000000
100
AcDbArc
 50
0.000000000
 51
90.000000000
  0
LINE
  5
AE2
330
A02
100
AcDbEntity
  8
Body_Unfold_Sketch_Bend_Labels
100
AcDbLine
 10
57.306046464
 20
82.900000000
 30
0.000000000
 11
57.306046464
 21
82.500000000
 31
0.000000000
  0
ARC
  5
AE3
330
A02
100
AcDbEntity
  8
Body_Unfold_Sketch_Bend_Labels
100
AcDbCircle
 10
56.906046464
 20
82.500000000
 30
0.000000000
 40
0.400000000
100
AcDbArc
 50
-90.000000000
 51
-0.000000000
  0
LINE
  5
AE4
330
A02
100
AcDbEntity
  8
Body_Unfold_Sketch_Bend_Labels
100
AcDbLine
 10
56.906046464
 20
82.100000000
 30
0.000000000
 11
55.706046464
 21
82.100000000
 31
0.000000000
  0
ARC
  5
AE5
330
A02
100
AcDbEntity
  8
Body_Unfold_Sketch_Bend_Labels
100
AcDbCircle
 10
55.706046464
 20
82.500000000
 30
0.000000000
 40
0.400000000
100
AcDbArc
 50
-180.000000000
 51
-90.000000000
  0
LINE
  5
AE6
330
A02
100
AcDbEntity
  8
Body_Unfold_Sketch_Bend_Labels
100
AcDbLine
 10
55.306046464
 20
82.500000000
 30
0.000000000
 11
55.306046464
 21
82.900000000
 31
0.000000000
  0
ARC
  5
AE7
330
A02
100
AcDbEntity
  8
Body_Unfold_Sketch_Bend_Labels
100
AcDbCircle
 10
55.706046464
 20
82.900000000
 30
0.000000000
 40
0.400000000
100
AcDbArc
 50
90.000000000
 51
180.000000000
  0
CIRCLE
  5
AE8
330
A02
100
AcDbEntity
  8
Body_Unfold_Sketch_Bend_Labels
100
AcDbCircle
 10
56.906046464
 20
81.300000000
 30
0.000000000
 40
0.400000000
  0
LINE
  5
AE9
330
A02
100
AcDbEntity
  8
Body_Unfold_Sketch_Bend_Labels
100
AcDbLine
 10
56.506046464
 20
53.700000000
 30
0.000000000
 11
56.506046464
 21
54.500000000
 31
0.000000000
  0
ARC
  5
AEA
330
A02
100
AcDbEntity
  8
Body_Unfold_Sketch_Bend_Labels
100
AcDbCircle
 10
56.906046464
 20
54.500000000
 30
0.000000000
 40
0.400000000
100
AcDbArc
 50
-0.000000000
 51
-180.000000000
  0
LINE
  5
AEB
330
A02
100
AcDbEntity
  8
Body_Unfold_Sketch_Bend_Labels
100
AcDbLine
 10
57.306046464
 20
54.500000000
 30
0.000000000
 11
57.306046464
 21
54.100000000
 31
0.000000000
  0
ARC
  5
AEC
330
A02
100
AcDbEntity
  8
Body_Unfold_Sketch_Bend_Labels
100
AcDbCircle
 10
56.906046464
 20
54.100000000
 30
0.000000000
 40
0.400000000
100
AcDbArc
 50
-90.000000000
 51
0.000000000
  0
LINE
  5
AED
330
A02
100
AcDbEntity
  8
Body_Unfold_Sketch_Bend_Labels
100
AcDbLine
 10
56.906046464
 20
53.700000000
 30
0.000000000
 11
55.706046464
 21
53.700000000
 31
0.000000000
  0
ARC
  5
AEE
330
A02
100
AcDbEntity
  8
Body_Unfold_Sketch_Bend_Labels
100
AcDbCircle
 10
55.706046464
 20
54.100000000
 30
0.000000000
 40
0.400000000
100
AcDbArc
 50
180.000000000
 51
-90.000000000
  0
LINE
  5
AEF
330
A02
100
AcDbEntity
  8
Body_Unfold_Sketch_Bend_Labels
100
AcDbLine
 10
55.306046464
 20
54.100000000
 30
0.000000000
 11
55.306046464
 21
54.500000000
 31
0.000000000
  0
ARC
  5
AF0
330
A02
100
AcDbEntity
  8
Body_Unfold_Sketch_Bend_Labels
100
AcDbCircle
 10
55.706046464
 20
54.500000000
 30
0.000000000
 40
0.400000000
100
AcDbArc
 50
90.000000000
 51
180.000000000
  0
LINE
  5
AF1
330
A02
100
AcDbEntity
  8
Body_Unfold_Sketch_Bend_Labels
100
AcDbLine
 10
55.706046464
 20
53.300000000
 30
0.000000000
 11
56.906046464
 21
53.300000000
 31
0.000000000
  0
ARC
  5
AF2
330
A02
100
AcDbEntity
  8
Body_Unfold_Sketch_Bend_Labels
100
AcDbCircle
 10
56.906046464
 20
52.900000000
 30
0.000000000
 40
0.400000000
100
AcDbArc
 50
0.000000000
 51
90.000000000
  0
LINE
  5
AF3
330
A02
100
AcDbEntity
  8
Body_Unfold_Sketch_Bend_Labels
100
AcDbLine
 10
57.306046464
 20
52.900000000
 30
0.000000000
 11
57.306046464
 21
52.500000000
 31
0.000000000
  0
ARC
  5
AF4
330
A02
100
AcDbEntity
  8
Body_Unfold_Sketch_Bend_Labels
100
AcDbCircle
 10
56.906046464
 20
52.500000000
 30
0.000000000
 40
0.400000000
100
AcDbArc
 50
-90.000000000
 51
0.000000000
  0
LINE
  5
AF5
330
A02
100
AcDbEntity
  8
Body_Unfold_Sketch_Bend_Labels
100
AcDbLine
 10
56.906046464
 20
52.100000000
 30
0.000000000
 11
55.706046464
 21
52.100000000
 31
0.000000000
  0
ARC
  5
AF6
330
A02
100
AcDbEntity
  8
Body_Unfold_Sketch_Bend_Labels
100
AcDbCircle
 10
55.706046464
 20
52.500000000
 30
0.000000000
 40
0.400000000
100
AcDbArc
 50
180.000000000
 51
-90.000000000
  0
LINE
  5
AF7
330
A02
100
AcDbEntity
  8
Body_Unfold_Sketch_Bend_Labels
100
AcDbLine
 10
55.306046464
 20
52.500000000
 30
0.000000000
 11
55.306046464
 21
52.900000000
 31
0.000000000
  0
ARC
  5
AF8
330
A02
100
AcDbEntity
  8
Body_Unfold_Sketch_Bend_Labels
100
AcDbCircle
 10
55.706046464
 20
52.900000000
 30
0.000000000
 40
0.400000000
100
AcDbArc
 50
90.000000000
 51
180.000000000
  0
CIRCLE
  5
AF9
330
A02
100
AcDbEntity
  8
Body_Unfold_Sketch_Bend_Labels
100
AcDbCircle
 10
56.906046464
 20
51.300000000
 30
0.000000000
 40
0.400000000
  0
LINE
  5
AFA
330
A02
100
AcDbEntity
  8
Body_Unfold_Sketch_Bend_Labels
100
AcDbLine
 10
56.506046464
 20
68.700000000
 30
0.000000000
 11
56.506046464
 21
69.500000000
 31
0.000000000
  0
ARC
  5
AFB
330
A02
100
AcDbEntity
  8
Body_Unfold_Sketch_Bend_Labels
100
AcDbCircle
 10
56.906046464
 20
69.500000000
 30
0.000000000
 40
0.400000000
100
AcDbArc
 50
-0.000000000
 51
-180.000000000
  0
LINE
  5
AFC
330
A02
100
AcDbEntity
  8
Body_Unfold_Sketch_Bend_Labels
100
AcDbLine
 10
57.306046464
 20
69.500000000
 30
0.000000000
 11
57.306046464
 21
69.100000000
 31
0.000000000
  0
ARC
  5
AFD
330
A02
100
AcDbEntity
  8
Body_Unfold_Sketch_Bend_Labels
100
AcDbCircle
 10
56.906046464
 20
69.100000000
 30
0.000000000
 40
0.400000000
100
AcDbArc
 50
-90.000000000
 51
0.000000000
  0
LINE
  5
AFE
330
A02
100
AcDbEntity
  8
Body_Unfold_Sketch_Bend_Labels
100
AcDbLine
 10
56.906046464
 20
68.700000000
 30
0.000000000
 11
55.706046464
 21
68.700000000
 31
0.000000000
  0
ARC
  5
AFF
330
A02
100
AcDbEntity
  8
Body_Unfold_Sketch_Bend_Labels
100
AcDbCircle
 10
55.706046464
 20
69.100000000
 30
0.000000000
 40
0.400000000
100
AcDbArc
 50
180.000000000
 51
-90.000000000
  0
LINE
  5
B00
330
A02
100
AcDbEntity
  8
Body_Unfold_Sketch_Bend_Labels
100
AcDbLine
 10
55.306046464
 20
69.100000000
 30
0.000000000
 11
55.306046464
 21
69.500000000
 31
0.000000000
  0
ARC
  5
B01
330
A02
100
AcDbEntity
  8
Body_Unfold_Sketch_Bend_Labels
100
AcDbCircle
 10
55.706046464
 20
69.500000000
 30
0.000000000
 40
0.400000000
100
AcDbArc
 50
90.000000000
 51
180.000000000
  0
LINE
  5
B02
330
A02
100
AcDbEntity
  8
Body_Unfold_Sketch_Bend_Labels
100
AcDbLine
 10
55.706046464
 20
68.300000000
 30
0.000000000
 11
56.906046464
 21
68.300000000
 31
0.000000000
  0
ARC
  5
B03
330
A02
100
AcDbEntity
  8
Body_Unfold_Sketch_Bend_Labels
100
AcDbCircle
 10
56.906046464
 20
67.900000000
 30
0.000000000
 40
0.400000000
100
AcDbArc
 50
-0.000000000
 51
90.000000000
  0
LINE
  5
B04
330
A02
100
AcDbEntity
  8
Body_Unfold_Sketch_Bend_Labels
100
AcDbLine
 10
57.306046464
 20
67.900000000
 30
0.000000000
 11
57.306046464
 21
67.500000000
 31
0.000000000
  0
ARC
  5
B05
330
A02
100
AcDbEntity
  8
Body_Unfold_Sketch_Bend_Labels
100
AcDbCircle
 10
56.906046464
 20
67.500000000
 30
0.000000000
 40
0.400000000
100
AcDbArc
 50
-90.000000000
 51
0.000000000
  0
LINE
  5
B06
330
A02
100
AcDbEntity
  8
Body_Unfold_Sketch_Bend_Labels
100
AcDbLine
 10
56.906046464
 20
67.100000000
 30
0.000000000
 11
55.706046464
 21
67.100000000
 31
0.000000000
  0
ARC
  5
B07
330
A02
100
AcDbEntity
  8
Body_Unfold_Sketch_Bend_Labels
100
AcDbCircle
 10
55.706046464
 20
67.500000000
 30
0.000000000
 40
0.400000000
100
AcDbArc
 50
180.000000000
 51
-90.000000000
  0
LINE
  5
B08
330
A02
100
AcDbEntity
  8
Body_Unfold_Sketch_Bend_Labels
100
AcDbLine
 10
55.306046464
 20
67.500000000
 30
0.000000000
 11
55.306046464
 21
67.900000000
 31
0.000000000
  0
ARC
  5
B09
330
A02
100
AcDbEntity
  8
Body_Unfold_Sketch_Bend_Labels
100
AcDbCircle
 10
55.706046464
 20
67.900000000
 30
0.000000000
 40
0.400000000
100
AcDbArc
 50
90.000000000
 51
-180.000000000
  0
CIRCLE
  5
B0A
330
A02
100
AcDbEntity
  8
Body_Unfold_Sketch_Bend_Labels
100
AcDbCircle
 10
56.906046464
 20
66.300000000
 30
0.000000000
 40
0.400000000
  0
LINE
  5
B0B
330
A02
100
AcDbEntity
  8
Body_Unfold_Sketch_Bend_Labels
100
AcDbLine
 10
16.274925987
 20
58.800000000
 30
0.000000000
 11
16.274925987
 21
58.000000000
 31
0.000000000
  0
ARC
  5
B0C
330
A02
100
AcDbEntity
  8
Body_Unfold_Sketch_Bend_Labels
100
AcDbCircle
 10
15.874925987
 20
58.000000000
 30
0.000000000
 40
0.400000000
100
AcDbArc
 50
180.000000000
 51
0.000000000
  0
LINE
  5
B0D
330
A02
100
AcDbEntity
  8
Body_Unfold_Sketch_Bend_Labels
100
AcDbLine
 10
15.474925987
 20
58.000000000
 30
0.000000000
 11
15.474925987
 21
58.400000000
 31
0.000000000
  0
ARC
  5
B0E
330
A02
100
AcDbEntity
  8
Body_Unfold_Sketch_Bend_Labels
100
AcDbCircle
 10
15.874925987
 20
58.400000000
 30
0.000000000
 40
0.400000000
100
AcDbArc
 50
90.000000000
 51
180.000000000
  0
LINE
  5
B0F
330
A02
100
AcDbEntity
  8
Body_Unfold_Sketch_Bend_Labels
100
AcDbLine
 10
15.874925987
 20
58.800000000
 30
0.000000000
 11
17.074925987
 21
58.800000000
 31
0.000000000
  0
ARC
  5
B10
330
A02
100
AcDbEntity
  8
Body_Unfold_Sketch_Bend_Labels
100
AcDbCircle
 10
17.074925987
 20
58.400000000
 30
0.000000000
 40
0.400000000
100
AcDbArc
 50
0.000000000
 51
90.000000000
  0
LINE
  5
B11
330
A02
100
AcDbEntity
  8
Body_Unfold_Sketch_Bend_Labels
100
AcDbLine
 10
17.474925987
 20
58.400000000
 30
0.000000000
 11
17.474925987
 21
58.000000000
 31
0.000000000
  0
ARC
  5
B12
330
A02
100
AcDbEntity
  8
Body_Unfold_Sketch_Bend_Labels
100
AcDbCircle
 10
17.074925987
 20
58.000000000
 30
0.000000000
 40
0.400000000
100
AcDbArc
 50
-90.000000000
 51
0.000000000
  0
LINE
  5
B13
330
A02
100
AcDbEntity
  8
Body_Unfold_Sketch_Bend_Labels
100
AcDbLine
 10
17.074925987
 20
59.200000000
 30
0.000000000
 11
15.874925987
 21
59.200000000
 31
0.000000000
  0
ARC
  5
B14
330
A02
100
AcDbEntity
  8
Body_Unfold_Sketch_Bend_Labels
100
AcDbCircle
 10
15.874925987
 20
59.600000000
 30
0.000000000
 40
0.400000000
100
AcDbArc
 50
180.000000000
 51
-90.000000000
  0
LINE
  5
B15
330
A02
100
AcDbEntity
  8
Body_Unfold_Sketch_Bend_Labels
100
AcDbLine
 10
15.474925987
 20
59.600000000
 30
0.000000000
 11
15.474925987
 21
60.000000000
 31
0.000000000
  0
ARC
  5
B16
330
A02
100
AcDbEntity
  8
Body_Unfold_Sketch_Bend_Labels
100
AcDbCircle
 10
15.874925987
 20
60.000000000
 30
0.000000000
 40
0.400000000
100
AcDbArc
 50
90.000000000
 51
180.000000000
  0
LINE
  5
B17
330
A02
100
AcDbEntity
  8
Body_Unfold_Sketch_Bend_Labels
100
AcDbLine
 10
15.874925987
 20
60.400000000
 30
0.000000000
 11
17.074925987
 21
60.400000000
 31
0.000000000
  0
ARC
  5
B18
330
A02
100
AcDbEntity
  8
Body_Unfold_Sketch_Bend_Labels
100
AcDbCircle
 10
17.074925987
 20
60.000000000
 30
0.000000000
 40
0.400000000
100
AcDbArc
 50
0.000000000
 51
90.000000000
  0
LINE
  5
B19
330
A02
100
AcDbEntity
  8
Body_Unfold_Sketch_Bend_Labels
100
AcDbLine
 10
17.474925987
 20
60.000000000
 30
0.000000000
 11
17.474925987
 21
59.600000000
 31
0.000000000
  0
ARC
  5
B1A
330
A02
100
AcDbEntity
  8
Body_Unfold_Sketch_Bend_Labels
100
AcDbCircle
 10
17.074925987
 20
59.600000000
 30
0.000000000
 40
0.400000000
100
AcDbArc
 50
-90.000000000
 51
0.000000000
  0
CIRCLE
  5
B1B
330
A02
100
AcDbEntity
  8
Body_Unfold_Sketch_Bend_Labels
100
AcDbCircle
 10
15.874925987
 20
61.200000000
 30
0.000000000
 40
0.400000000
  0
ENDSEC
  0
SECTION
  2
OBJECTS
  0
DICTIONARY
  5
F000
330
0
100
AcDbDictionary
  3
ACAD_GROUP
350
F001
  0
DICTIONARY
  5
F001
330
F000
100
AcDbDictionary
  0
ENDSEC
  0
EOF